<svg width="151" height="151" viewBox="0 0 151 151" fill="none" xmlns="http://www.w3.org/2000/svg">
<path d="M34.1518 107.346C32.166 106.408 29.8001 106.875 28.3203 108.498C23.6477 113.624 21.6211 119.693 21.2486 125.893C15.8047 115.982 12.5042 107.134 10.4666 100.078C4.49382 79.395 4.63863 66.6614 7.81062 54.7418C12.4322 37.375 20.4839 26.716 29.9148 19.9623C39.4536 13.1312 50.8349 9.9857 62.5909 8.456C63.8814 8.28809 65.1564 8.11856 66.4175 7.95089C78.029 6.40704 88.4534 5.02102 98.7968 6.50505C109.908 8.09931 121.118 13.0793 132.954 25.8135C140.617 34.0586 145.647 47.9024 145.644 62.013C145.641 76.0534 140.681 89.3899 129.624 97.4189C109.142 112.292 70.5485 124.548 34.1518 107.346Z" fill="black" stroke="black" stroke-width="10" stroke-linejoin="round"/>
</svg>
