<svg width="151" height="151" viewBox="0 0 151 151" fill="none" xmlns="http://www.w3.org/2000/svg">
<path d="M107.991 108.802C97.0136 119.886 84.9042 131.784 75.5 140.913C66.0958 131.784 53.9864 119.886 43.0095 108.802C30.5019 96.1723 19.7995 84.9292 16.0166 79.9213C6.3763 67.1589 1.64061 48.1578 9.33484 27.2197C12.151 19.5562 18.8448 12.6858 27.0288 8.86202C35.1755 5.05572 44.163 4.54045 51.6905 8.5266C57.4997 11.6028 61.733 17.9894 64.7955 25.6925C67.8126 33.2811 69.3599 41.2796 70.3624 46.5881C70.8084 48.9499 72.8719 50.6602 75.2755 50.6602C77.6792 50.6602 79.7427 48.9499 80.1887 46.5881C81.1791 41.3432 82.8361 33.3344 85.9576 25.7478C89.1291 18.0399 93.4707 11.6185 99.3095 8.5266C106.837 4.54045 115.825 5.05572 123.971 8.86202C132.155 12.6858 138.849 19.5562 141.665 27.2197C149.359 48.1578 144.624 67.1589 134.983 79.9213C131.201 84.9292 120.498 96.1723 107.991 108.802Z" stroke="black" stroke-width="10" stroke-linejoin="round"/>
</svg>
